<?xml version="1.0" encoding="iso-8859-1"?>
<!-- Generator: Adobe Illustrator 21.1.0, SVG Export Plug-In . SVG Version: 6.00 Build 0)  -->
<svg version="1.1" id="Layer_1" xmlns="http://www.w3.org/2000/svg" xmlns:xlink="http://www.w3.org/1999/xlink" x="0px" y="0px"
	 viewBox="0 0 24 24" enable-background="new 0 0 24 24" xml:space="preserve">
<g>
	<path fill="#303C42" d="M2.7216797,20.0517578c-0.1704102-0.0834961-0.3745117-0.0639648-0.5253906,0.0512695l-1.5541992,1.1889648
		C0.2338867,21.5820313,0,22.0219727,0,22.5C0,23.3271484,0.6728516,24,1.5,24S3,23.3271484,3,22.5v-2
		C3,20.3095703,2.8920898,20.1362305,2.7216797,20.0517578z"/>
	<path fill="#BDDDF4" d="M2,22.5C2,22.7758789,1.7758789,23,1.5,23S1,22.7758789,1,22.5
		c0-0.2070313,0.1411133-0.3369141,0.2250977-0.3959961c0.0058594-0.0039063,0.0112305-0.0078125,0.0166016-0.012207L2,21.512207
		V22.5z"/>
	<path fill="#303C42" d="M23.5,7h-1.5253296c-0.1035156-1.1414795-0.555481-2.1832886-1.2509155-3.0169678l1.0799561-1.0792236
		c0.1953125-0.1948242,0.1953125-0.5117188,0-0.7070313s-0.5117188-0.1953125-0.7070313,0L20.0166626,3.276062
		C19.1829224,2.5807495,18.1412964,2.1288452,17,2.0253296V0.5C17,0.2236328,16.7763672,0,16.5,0S16,0.2236328,16,0.5v1.539978
		c-1.1244507,0.1039429-2.1610718,0.548584-2.9996338,1.2531128l-1.0970459-1.0963135
		c-0.1953125-0.1953125-0.5117188-0.1953125-0.7070313,0s-0.1953125,0.512207,0,0.7070313l1.0995483,1.0988159
		c-0.321106,0.3892212-0.5880737,0.824707-0.7966309,1.3009033C10.8591309,5.1100464,10.1882935,5,9.5,5
		c-3.6030273,0-6.5836792,2.7324219-6.9460449,6.2807007C1.0628662,11.8625488,0,13.305542,0,15c0,2.2055664,1.7939453,4,4,4h13
		c2.7568359,0,5-2.2431641,5-5c0-1.2110596-0.4501953-2.3081055-1.1693726-3.1742554
		C21.4708862,9.9967651,21.8565063,9.0241699,21.953064,8H23.5C23.7763672,8,24,7.7763672,24,7.5S23.7763672,7,23.5,7z"/>
	<path fill="#FFCB29" d="M20.1148071,10.1203003C19.2575073,9.430481,18.1833496,9,17,9
		c-0.3878784,0-0.7671509,0.057373-1.1385498,0.144104c-0.7002563-1.5549316-1.9281006-2.781189-3.4311523-3.4818115
		C13.1519775,4.0567017,14.727417,3,16.5,3C18.9814453,3,21,5.0185547,21,7.5
		C21,8.4418335,20.6784668,9.3503418,20.1148071,10.1203003z"/>
	<path fill="#70B2E2" d="M21,14c0,2.2055664-1.7939453,4-4,4H4c-1.6542969,0-3-1.3457031-3-3s1.3457031-3,3-3
		c0.2763672,0,0.5-0.2236328,0.5-0.5S4.2763672,11,4,11c-0.1415405,0-0.2755737,0.0274048-0.4133911,0.0418091
		C4.0462036,8.168335,6.5291138,6,9.5,6c2.3226929,0,4.4284668,1.3778687,5.4089355,3.4611206
		c-0.241272,0.1112671-0.4758911,0.2384644-0.6989746,0.3884888c-0.2285156,0.1542969-0.2900391,0.4648438-0.1357422,0.6943359
		c0.1552734,0.2290039,0.4658203,0.2880859,0.6943359,0.1357422C15.4287109,10.2348633,16.2011719,10,17,10
		C19.2060547,10,21,11.7944336,21,14z"/>
	<path fill="#70B2E2" d="M21,14c0,2.2055664-1.7939453,4-4,4H4c-1.6542969,0-3-1.3457031-3-3s1.3457031-3,3-3
		c0.2763672,0,0.5-0.2236328,0.5-0.5S4.2763672,11,4,11c-0.1415405,0-0.2755737,0.0274048-0.4133911,0.0418091
		C4.0462036,8.168335,6.5291138,6,9.5,6c2.3226929,0,4.4284668,1.3778687,5.4089355,3.4611206
		c-0.241272,0.1112671-0.4758911,0.2384644-0.6989746,0.3884888c-0.2285156,0.1542969-0.2900391,0.4648438-0.1357422,0.6943359
		c0.1552734,0.2290039,0.4658203,0.2880859,0.6943359,0.1357422C15.4287109,10.2348633,16.2011719,10,17,10
		C19.2060547,10,21,11.7944336,21,14z"/>
	<path fill="#303C42" d="M5.5,22C4.6728516,22,4,21.3271484,4,20.5c0-0.4780273,0.2338867-0.9179688,0.6420898-1.2080078
		l1.5541992-1.1889648c0.1518555-0.1157227,0.3549805-0.1352539,0.5253906-0.0512695C6.8920898,18.1362305,7,18.3095703,7,18.5v2
		C7,21.3271484,6.3271484,22,5.5,22z"/>
	<path fill="#BDDDF4" d="M6,19.512207l-0.7583008,0.5795898c-0.0053711,0.0043945-0.0107422,0.0083008-0.0166016,0.012207
		C5.1411133,20.1630859,5,20.2929688,5,20.5C5,20.7758789,5.2241211,21,5.5,21S6,20.7758789,6,20.5V19.512207z"/>
	<path fill="#303C42" d="M4.9379883,19.6948242h0.0097656H4.9379883z"/>
	<path fill="#303C42" d="M14.5,24c-0.8271484,0-1.5-0.6728516-1.5-1.5c0-0.4785156,0.2338867-0.9179688,0.6420898-1.2075195
		l1.5541992-1.1894531c0.1518555-0.1152344,0.355957-0.1347656,0.5253906-0.0512695C15.8920898,20.1357422,16,20.3095703,16,20.5v2
		C16,23.3271484,15.3271484,24,14.5,24z"/>
	<path fill="#BDDDF4" d="M15,21.512207l-0.7583008,0.5800781c-0.0053711,0.0043945-0.0112305,0.0087891-0.0170898,0.0126953
		C14.140625,22.1635742,14,22.2929688,14,22.5c0,0.2758789,0.2241211,0.5,0.5,0.5s0.5-0.2241211,0.5-0.5V21.512207z"/>
	<path fill="#303C42" d="M13.9379883,21.6953125h0.0097656H13.9379883z"/>
	<path opacity="0.1" fill="#010101" d="M19.2682495,10.7114258C19.4078369,11.117981,19.5,11.5466919,19.5,12
		c0,2.2055664-1.7939453,4-4,4h-13c-0.5222778,0-1.0063477-0.1460571-1.4344482-0.3816528C1.3515625,16.9766846,2.5578003,18,4,18
		h13c2.2060547,0,4-1.7944336,4-4C21,12.6369629,20.312439,11.43396,19.2682495,10.7114258z"/>
	<path fill="#303C42" d="M8,24c-0.0644531,0-0.1289063-0.012207-0.1914063-0.0380859
		c-0.2207031-0.0913086-0.3457031-0.3256836-0.2988281-0.5600586l1.5-7.5
		c0.0302734-0.152832,0.1303711-0.2827148,0.2705078-0.3510742s0.3041992-0.0673828,0.4433594,0.0019531l1.3583984,0.6791992
		l0.4208984-3.7871094c0.0166016-0.1499023,0.1005859-0.284668,0.2275391-0.3662109
		c0.1274414-0.081543,0.2841797-0.1020508,0.4277344-0.0527344l3,1c0.2578125,0.0854492,0.3994141,0.3613281,0.3198242,0.6210938
		l-2,6.5c-0.043457,0.140625-0.1459961,0.2548828-0.28125,0.3125c-0.1347656,0.059082-0.2885742,0.0541992-0.4204102-0.012207
		l-1.6049805-0.8027344l-2.7553711,4.1328125C8.3208008,23.9199219,8.1630859,24,8,24z"/>
	<path fill="#FFCB29" d="M9.8618164,16.7397461l-0.8759766,4.3798828l1.5981445-2.3969727
		c0.1401367-0.2094727,0.4140625-0.2832031,0.6396484-0.1699219l1.472168,0.7363281l1.6826172-5.4692383l-1.949707-0.6499023
		l-0.4316406,3.8852539c-0.0180664,0.1625977-0.1147461,0.3061523-0.2583008,0.3842773
		c-0.1435547,0.0771484-0.315918,0.0810547-0.4624023,0.0078125L9.8618164,16.7397461z"/>
	<linearGradient id="SVGID_1_" gradientUnits="userSpaceOnUse" x1="2.4485776" y1="8.8676052" x2="20.8980942" y2="17.4707565">
		<stop  offset="0" style="stop-color:#FFFFFF;stop-opacity:0.2"/>
		<stop  offset="1" style="stop-color:#FFFFFF;stop-opacity:0"/>
	</linearGradient>
	<path fill="url(#SVGID_1_)" d="M2.7216797,20.0517578c-0.1704102-0.0834961-0.3745117-0.0639648-0.5253906,0.0512695
		l-1.5541992,1.1889648C0.2338867,21.5820313,0,22.0219727,0,22.5C0,23.3271484,0.6728516,24,1.5,24S3,23.3271484,3,22.5v-2
		C3,20.3095703,2.8920898,20.1362305,2.7216797,20.0517578z M23.5,7h-1.5253296
		c-0.1035156-1.1414795-0.555481-2.1832886-1.2509155-3.0169678l1.0799561-1.0792236
		c0.1953125-0.1948242,0.1953125-0.5117188,0-0.7070313s-0.5117188-0.1953125-0.7070313,0L20.0166626,3.276062
		C19.1829224,2.5807495,18.1412964,2.1288452,17,2.0253296V0.5C17,0.2236328,16.7763672,0,16.5,0S16,0.2236328,16,0.5v1.539978
		c-1.1244507,0.1039429-2.1610718,0.548584-2.9996338,1.2531128l-1.0970459-1.0963135
		c-0.1953125-0.1953125-0.5117188-0.1953125-0.7070313,0s-0.1953125,0.512207,0,0.7070313l1.0995483,1.0988159
		c-0.321106,0.3892212-0.5880737,0.824707-0.7966309,1.3009033C10.8591309,5.1100464,10.1882935,5,9.5,5
		c-3.6030273,0-6.5836792,2.7324219-6.9460449,6.2807007C1.0628662,11.8625488,0,13.305542,0,15c0,2.2055664,1.7939453,4,4,4
		h1.0238037l-0.3817139,0.2919922C4.2338867,19.5820313,4,20.0219727,4,20.5C4,21.3271484,4.6728516,22,5.5,22S7,21.3271484,7,20.5
		V19h1.3901367l-0.8803711,4.4018555c-0.046875,0.234375,0.078125,0.46875,0.2988281,0.5600586
		C7.8710938,23.987793,7.9355469,24,8,24c0.1630859,0,0.3208008-0.0800781,0.4160156-0.2226563l2.7553711-4.1328125
		l1.6049805,0.8027344c0.1318359,0.0664063,0.2856445,0.0712891,0.4204102,0.012207
		c0.1352539-0.0576172,0.237793-0.171875,0.28125-0.3125L13.8309326,19H17c2.7568359,0,5-2.2431641,5-5
		c0-1.2110596-0.4501953-2.3081055-1.1693726-3.1742554C21.4708862,9.9967651,21.8565063,9.0241699,21.953064,8H23.5
		C23.7763672,8,24,7.7763672,24,7.5S23.7763672,7,23.5,7z M15.7216797,20.0517578
		c-0.1694336-0.0834961-0.3735352-0.0639648-0.5253906,0.0512695l-1.5541992,1.1894531C13.2338867,21.5820313,13,22.0214844,13,22.5
		c0,0.8271484,0.6728516,1.5,1.5,1.5s1.5-0.6728516,1.5-1.5v-2C16,20.3095703,15.8920898,20.1357422,15.7216797,20.0517578z"/>
</g>
<g>
</g>
<g>
</g>
<g>
</g>
<g>
</g>
<g>
</g>
<g>
</g>
<g>
</g>
<g>
</g>
<g>
</g>
<g>
</g>
<g>
</g>
<g>
</g>
<g>
</g>
<g>
</g>
<g>
</g>
</svg>
