<?xml version="1.0" encoding="UTF-8" standalone="no"?>
<svg
   xmlns:dc="http://purl.org/dc/elements/1.1/"
   xmlns:cc="http://creativecommons.org/ns#"
   xmlns:rdf="http://www.w3.org/1999/02/22-rdf-syntax-ns#"
   xmlns:svg="http://www.w3.org/2000/svg"
   xmlns="http://www.w3.org/2000/svg"
   xmlns:sodipodi="http://sodipodi.sourceforge.net/DTD/sodipodi-0.dtd"
   xmlns:inkscape="http://www.inkscape.org/namespaces/inkscape"
   inkscape:export-ydpi="576"
   inkscape:export-xdpi="576"
   inkscape:export-filename="D:\project oktober adnan\Filled line(export)\PNG\11 - Landslide.png"
   sodipodi:docname="12 - Sunset.svg"
   inkscape:version="1.0 (4035a4fb49, 2020-05-01)"
   id="svg831"
   version="1.1"
   viewBox="0 0 22.577778 22.577778"
   height="64pt"
   width="64pt">
  <defs
     id="defs825">
    <pattern
       y="0"
       x="0"
       height="6"
       width="6"
       patternUnits="userSpaceOnUse"
       id="EMFhbasepattern" />
    <pattern
       y="0"
       x="0"
       height="6"
       width="6"
       patternUnits="userSpaceOnUse"
       id="EMFhbasepattern-9" />
    <pattern
       y="0"
       x="0"
       height="6"
       width="6"
       patternUnits="userSpaceOnUse"
       id="EMFhbasepattern-0" />
    <pattern
       y="0"
       x="0"
       height="6"
       width="6"
       patternUnits="userSpaceOnUse"
       id="EMFhbasepattern-7" />
    <pattern
       y="0"
       x="0"
       height="6"
       width="6"
       patternUnits="userSpaceOnUse"
       id="EMFhbasepattern-2" />
    <pattern
       y="0"
       x="0"
       height="6"
       width="6"
       patternUnits="userSpaceOnUse"
       id="EMFhbasepattern-98" />
    <pattern
       y="0"
       x="0"
       height="6"
       width="6"
       patternUnits="userSpaceOnUse"
       id="EMFhbasepattern-6" />
    <pattern
       y="0"
       x="0"
       height="6"
       width="6"
       patternUnits="userSpaceOnUse"
       id="EMFhbasepattern-01" />
    <pattern
       y="0"
       x="0"
       height="6"
       width="6"
       patternUnits="userSpaceOnUse"
       id="EMFhbasepattern-07" />
    <pattern
       y="0"
       x="0"
       height="6"
       width="6"
       patternUnits="userSpaceOnUse"
       id="EMFhbasepattern-8" />
    <pattern
       y="0"
       x="0"
       height="6"
       width="6"
       patternUnits="userSpaceOnUse"
       id="EMFhbasepattern-4" />
    <pattern
       y="0"
       x="0"
       height="6"
       width="6"
       patternUnits="userSpaceOnUse"
       id="EMFhbasepattern-40" />
    <pattern
       y="0"
       x="0"
       height="6"
       width="6"
       patternUnits="userSpaceOnUse"
       id="EMFhbasepattern-08" />
    <pattern
       y="0"
       x="0"
       height="6"
       width="6"
       patternUnits="userSpaceOnUse"
       id="EMFhbasepattern-04" />
    <pattern
       y="0"
       x="0"
       height="6"
       width="6"
       patternUnits="userSpaceOnUse"
       id="EMFhbasepattern-014" />
    <pattern
       y="0"
       x="0"
       height="6"
       width="6"
       patternUnits="userSpaceOnUse"
       id="EMFhbasepattern-27" />
    <pattern
       y="0"
       x="0"
       height="6"
       width="6"
       patternUnits="userSpaceOnUse"
       id="EMFhbasepattern-09" />
    <pattern
       y="0"
       x="0"
       height="6"
       width="6"
       patternUnits="userSpaceOnUse"
       id="EMFhbasepattern-5" />
    <pattern
       y="0"
       x="0"
       height="6"
       width="6"
       patternUnits="userSpaceOnUse"
       id="EMFhbasepattern-018" />
  </defs>
  <sodipodi:namedview
     inkscape:lockguides="true"
     inkscape:document-rotation="0"
     inkscape:snap-global="true"
     inkscape:snap-nodes="false"
     inkscape:bbox-nodes="true"
     inkscape:snap-bbox="true"
     showguides="true"
     inkscape:snap-midpoints="true"
     inkscape:snap-smooth-nodes="true"
     inkscape:snap-intersection-paths="true"
     inkscape:object-paths="true"
     inkscape:showpageshadow="false"
     inkscape:pagecheckerboard="true"
     inkscape:window-maximized="1"
     inkscape:window-y="-8"
     inkscape:window-x="-8"
     inkscape:window-height="706"
     inkscape:window-width="1366"
     units="pt"
     showgrid="false"
     inkscape:current-layer="layer1"
     inkscape:document-units="pt"
     inkscape:cy="42.778201"
     inkscape:cx="34.109987"
     inkscape:zoom="4.4415145"
     inkscape:pageshadow="2"
     inkscape:pageopacity="0.0"
     borderopacity="1.0"
     bordercolor="#666666"
     pagecolor="#ffffff"
     id="base">
    <inkscape:grid
       id="grid1378"
       type="xygrid" />
    <sodipodi:guide
       inkscape:locked="true"
       id="guide1380"
       orientation="78.000048,0"
       position="0.97013831,21.607643" />
    <sodipodi:guide
       inkscape:locked="true"
       id="guide1382"
       orientation="0,78.000005"
       position="0.97013831,0.97013129" />
    <sodipodi:guide
       inkscape:locked="true"
       id="guide1384"
       orientation="-78.000048,0"
       position="21.607639,0.97013129" />
    <sodipodi:guide
       inkscape:locked="true"
       id="guide1386"
       orientation="0,-78.000005"
       position="21.607639,21.607643" />
  </sodipodi:namedview>
  <metadata
     id="metadata828">
    <rdf:RDF>
      <cc:Work
         rdf:about="">
        <dc:format>image/svg+xml</dc:format>
        <dc:type
           rdf:resource="http://purl.org/dc/dcmitype/StillImage" />
        <dc:title></dc:title>
      </cc:Work>
    </rdf:RDF>
  </metadata>
  <g
     transform="translate(0,-274.42223)"
     id="layer1"
     inkscape:groupmode="layer"
     inkscape:label="Icon">
    <g
       transform="matrix(1.3241097,0,0,1.3241097,40.493292,-55.435383)"
       style="display:inline;stroke-width:0.755224"
       id="g1121">
      <g
         style="stroke-width:0.755224"
         id="g1371">
        <path
           style="color:#000000;font-style:normal;font-variant:normal;font-weight:normal;font-stretch:normal;font-size:medium;line-height:normal;font-family:sans-serif;font-variant-ligatures:normal;font-variant-position:normal;font-variant-caps:normal;font-variant-numeric:normal;font-variant-alternates:normal;font-variant-east-asian:normal;font-feature-settings:normal;font-variation-settings:normal;text-indent:0;text-align:start;text-decoration:none;text-decoration-line:none;text-decoration-style:solid;text-decoration-color:#000000;letter-spacing:normal;word-spacing:normal;text-transform:none;writing-mode:lr-tb;direction:ltr;text-orientation:mixed;dominant-baseline:auto;baseline-shift:baseline;text-anchor:start;white-space:normal;shape-padding:0;shape-margin:0;inline-size:0;clip-rule:nonzero;display:inline;overflow:visible;visibility:visible;isolation:auto;mix-blend-mode:normal;color-interpolation:sRGB;color-interpolation-filters:linearRGB;solid-color:#000000;solid-opacity:1;vector-effect:none;fill:#ec7523;fill-opacity:1;fill-rule:nonzero;stroke:none;stroke-width:0.39964;stroke-linecap:round;stroke-linejoin:round;stroke-miterlimit:4;stroke-dasharray:none;stroke-dashoffset:0;stroke-opacity:1;color-rendering:auto;image-rendering:auto;shape-rendering:auto;text-rendering:auto;enable-background:accumulate;stop-color:#000000"
           d="m -22.02913,252.56606 c -2.429584,0.005 -4.401892,1.98189 -4.401884,4.41148 a 0.26008227,0.26008227 0 0 0 0.259159,0.26109 l 8.302727,-0.0192 a 0.26008227,0.26008227 0 0 0 0.26108,-0.26108 c -0.01052,-2.42957 -1.991504,-4.39751 -4.421082,-4.39229 z"
           id="path495" />
        <path
           id="path525"
           style="fill:#db6e23;fill-opacity:1;stroke:none;stroke-width:0.399639;stroke-linecap:round;stroke-linejoin:round;stroke-opacity:1"
           d="m -22.006162,252.59392 c -1.080812,0.002 -2.068044,0.40202 -2.828985,1.05724 2.058247,-0.47258 4.085948,-0.72097 4.913341,1.76121 0.193496,0.58049 0.236784,1.20057 0.43905,1.78229 l 1.586098,-0.004 a 0.25693258,0.25693258 0 0 0 0.25791,-0.25791 c -0.01039,-2.40014 -1.967259,-4.34447 -4.367414,-4.33932 z" />
        <path
           sodipodi:nodetypes="cccsscccccscccsssccccssscccsccscccc"
           style="color:#000000;font-style:normal;font-variant:normal;font-weight:normal;font-stretch:normal;font-size:medium;line-height:normal;font-family:sans-serif;font-variant-ligatures:normal;font-variant-position:normal;font-variant-caps:normal;font-variant-numeric:normal;font-variant-alternates:normal;font-variant-east-asian:normal;font-feature-settings:normal;font-variation-settings:normal;text-indent:0;text-align:start;text-decoration:none;text-decoration-line:none;text-decoration-style:solid;text-decoration-color:#000000;letter-spacing:normal;word-spacing:normal;text-transform:none;writing-mode:lr-tb;direction:ltr;text-orientation:mixed;dominant-baseline:auto;baseline-shift:baseline;text-anchor:start;white-space:normal;shape-padding:0;shape-margin:0;inline-size:0;clip-rule:nonzero;display:inline;overflow:visible;visibility:visible;isolation:auto;mix-blend-mode:normal;color-interpolation:sRGB;color-interpolation-filters:linearRGB;solid-color:#000000;solid-opacity:1;vector-effect:none;fill:#87d1ee;fill-opacity:1;fill-rule:nonzero;stroke:none;stroke-width:0.39964;stroke-linecap:round;stroke-linejoin:round;stroke-miterlimit:4;stroke-dasharray:none;stroke-dashoffset:0;stroke-opacity:1;color-rendering:auto;image-rendering:auto;shape-rendering:auto;text-rendering:auto;enable-background:accumulate;stop-color:#000000"
           d="m -17.846607,257.13852 c -2.878585,-0.24311 -5.971364,-0.18568 -8.848364,0.021 -0.266792,0.0192 -0.48353,0.0655 -0.657274,0.14331 -0.173743,0.0778 -0.333522,0.2006 -0.368761,0.40697 -0.03524,0.20637 0.09007,0.38682 0.240746,0.5006 0.15068,0.11378 0.441756,0.13798 0.699755,0.20796 0.799728,0.21695 1.548261,0.29141 2.38592,0.43534 0.220156,0.0379 0.469385,0.12902 0.556453,0.18357 0.08707,0.0546 0.09154,0.17856 0.01491,0.18006 1.74e-4,0.002 0.006,0.0274 -0.06497,0.0955 -0.07096,0.0682 -0.212273,0.15772 -0.42035,0.23692 -0.213321,0.0812 -0.428527,0.16217 -0.641989,0.24457 -0.519095,0.20048 -0.852239,0.5638 -0.844521,0.98591 0.0077,0.42212 0.352364,0.77383 0.875092,0.96299 0.691202,0.25011 1.405089,0.47685 2.10366,0.73179 0.780562,0.28486 1.068938,1.17743 0.718416,1.95462 -0.08667,0.19217 -0.137964,0.35121 -0.137569,0.51398 1.98e-4,0.0814 0.01422,0.17015 0.06878,0.25412 0.05456,0.0839 0.153044,0.14583 0.244567,0.16432 0.183046,0.037 0.323786,-0.0264 0.479582,-0.11274 0.155796,-0.0863 0.32596,-0.21421 0.517794,-0.38595 0.35473,-0.31759 0.722402,-0.64329 1.110105,-0.92859 0.424432,-0.31233 0.86244,-0.76131 1.106285,-1.22857 0.121922,-0.23362 0.201715,-0.47853 0.166229,-0.73179 -0.03548,-0.25325 -0.219587,-0.48788 -0.492956,-0.6076 -0.417838,-0.18297 -0.885952,-0.35616 -1.343209,-0.51779 -0.20909,-0.074 -0.356118,-0.16261 -0.439455,-0.23883 -0.08334,-0.0762 -0.09848,-0.12766 -0.09936,-0.15859 -8.79e-4,-0.0309 0.0083,-0.0727 0.08407,-0.14331 0.0758,-0.0706 0.140107,-0.26356 0.349283,-0.33298 1.158452,-0.38444 2.053189,-0.56519 3.104857,-1.10047 0.250529,-0.12752 0.512817,-0.20058 0.619431,-0.39888 0.106615,-0.19832 0.123974,-0.42999 0.05158,-0.63053 -0.14477,-0.40109 -0.578583,-0.65963 -1.138765,-0.70695 z"
           id="path509" />
        <path
           sodipodi:nodetypes="cssccccccsccccsccscsccc"
           id="path1353"
           style="fill:#2bb3cd;fill-opacity:1;stroke:none;stroke-width:0.39964;stroke-linecap:round;stroke-linejoin:round;stroke-opacity:1"
           d="m -18.368144,257.10173 c 1.831036,1.39842 -4.262324,2.26851 -3.549862,3.69343 0.327164,0.65432 2.908322,1.43472 2.047414,2.29563 -0.422168,0.42217 -1.983209,1.21708 -2.32748,2.03326 0.0096,0.0247 0.01561,0.0496 0.03134,0.0738 0.05456,0.0839 0.153156,0.14581 0.244679,0.1643 0.183046,0.037 0.323956,-0.0264 0.479752,-0.11274 0.155796,-0.0863 0.325833,-0.21448 0.517667,-0.38623 0.35473,-0.31758 0.72245,-0.64285 1.110154,-0.92816 0.424431,-0.31232 0.862263,-0.76169 1.106109,-1.22895 0.121921,-0.23362 0.201807,-0.47825 0.16632,-0.73151 -0.03548,-0.25325 -0.219527,-0.48793 -0.492895,-0.60765 -0.417839,-0.18298 -0.885949,-0.35604 -1.343205,-0.51767 -0.209091,-0.074 -0.356477,-0.16289 -0.439815,-0.23912 -0.08334,-0.0762 -0.09821,-0.1273 -0.09909,-0.15823 -8.8e-4,-0.0309 0.0082,-0.073 0.08392,-0.14357 0.0758,-0.0706 0.17091,-0.27893 0.380086,-0.34835 1.158452,-0.38444 2.037964,-0.54971 3.089632,-1.08499 0.250529,-0.12752 0.497263,-0.20092 0.603877,-0.39922 0.106615,-0.19832 0.123955,-0.42986 0.05157,-0.6304 -0.14477,-0.40108 -0.578281,-0.65942 -1.138463,-0.70674 -0.172391,-0.0146 -0.347877,-0.0245 -0.521712,-0.0369 z" />
      </g>
      <path
         id="path906"
         style="color:#000000;display:inline;fill:#000000;stroke-width:0.755224;stroke-linecap:round;stroke-linejoin:round"
         d="m -22.304447,250.11334 v 1.5875 c 0,0.18498 0.142891,0.26564 0.263637,0.26564 0.156471,0 0.266301,-0.10931 0.266301,-0.26578 v -1.05833 -0.52917 c -2.6e-4,-0.14633 -0.11929,-0.26464 -0.265598,-0.264 -0.146309,6.4e-4 -0.264056,0.11862 -0.26434,0.26414 z m -1.673799,0.51832 c -0.01852,10e-4 -0.03687,0.004 -0.05478,0.009 -0.141589,0.0376 -0.225681,0.18308 -0.187587,0.32453 l 0.205156,0.7674 c 0.03851,0.14049 0.183353,0.22342 0.324011,0.18551 0.14133,-0.0376 0.225351,-0.18272 0.187587,-0.32401 l -0.205155,-0.76584 c -0.03207,-0.12085 -0.144365,-0.20275 -0.269235,-0.19637 z m 3.599258,0.1943 -0.205157,0.76791 c -0.0379,0.14066 0.045,0.2855 0.185517,0.32401 0.14145,0.0381 0.28694,-0.046 0.32453,-0.18758 l 0.207217,-0.76533 c 0.0381,-0.14145 -0.046,-0.28693 -0.187577,-0.32453 -0.17045,-0.0333 -0.29113,0.0609 -0.32453,0.18552 z m -5.644611,0.0744 c -0.04659,-1.9e-4 -0.09241,0.0119 -0.132808,0.0351 -0.126722,0.0728 -0.17045,0.2345 -0.09767,0.36121 l 0.793232,1.37511 c 0.07354,0.12722 0.236652,0.17015 0.363285,0.0956 0.125973,-0.0735 0.168732,-0.23505 0.0956,-0.36122 l -0.792716,-1.37305 c -0.0471,-0.082 -0.134368,-0.13262 -0.228928,-0.1328 z m 7.730769,0.16381 -0.794774,1.37511 c -0.0728,0.12672 -0.029,0.28845 0.0977,0.36122 0.12672,0.0728 0.288437,0.029 0.361217,-0.0977 l 0.792707,-1.37459 c 0.0735,-0.12629 0.0307,-0.28824 -0.0956,-0.36174 -0.16027,-0.0768 -0.30799,0.005 -0.361221,0.0977 z m 0.740057,5.98362 v -0.0832 c -0.0107,-2.47186 -2.026018,-4.47383 -4.497914,-4.46865 -2.471905,0.005 -4.478314,2.0164 -4.478309,4.48828 v 0.0377 c -0.09543,0.006 -0.191299,0.0128 -0.286287,0.0196 -0.2808,0.0202 -0.50541,0.0677 -0.685744,0.15193 -0.180335,0.0842 -0.348957,0.22721 -0.366903,0.44752 -2.64e-4,0.23127 0.137906,0.40191 0.286803,0.50023 0.14927,0.10283 0.340188,0.18192 0.583943,0.24805 0.817494,0.22176 1.692934,0.36238 2.5492,0.50952 0.2208,0.0379 0.380301,0.0974 0.470254,0.15245 0.122735,0.0709 0.07205,0.16997 0.02275,0.19844 -0.326218,0.23992 -0.717494,0.34599 -1.07642,0.48266 -0.554112,0.21399 -0.857501,0.61993 -0.857501,1.05237 0,0.42995 0.383804,0.75973 0.886997,0.94182 0.706559,0.25568 1.438235,0.48509 2.152324,0.74569 0.797909,0.29119 1.092641,1.20594 0.734322,2.00039 -0.07965,0.17657 -0.130159,0.32419 -0.14056,0.47233 -0.0104,0.14813 0.04187,0.34684 0.243879,0.44384 0.202,0.097 0.36711,0.0252 0.535377,-0.063 0.16826,-0.0881 0.35152,-0.22252 0.560687,-0.40979 0.36261,-0.32464 0.738487,-0.65973 1.134804,-0.95137 0.433877,-0.31927 0.881417,-0.7781 1.130685,-1.25573 0.12463,-0.23882 0.206289,-0.48733 0.17001,-0.74621 -0.0363,-0.25889 -0.22442,-0.50085 -0.503838,-0.62322 -0.427117,-0.18704 -0.905637,-0.36394 -1.373044,-0.52917 -0.706304,-0.26863 -0.535557,-0.60715 -0.0294,-0.78134 1.184173,-0.39298 2.098917,-0.59333 3.173941,-1.1405 0.45157,-0.22985 0.644407,-0.57131 0.644407,-0.94525 0,-0.5383 -0.620747,-0.81914 -0.984404,-0.89547 z m -9.7462,-4.4912 c -0.07024,1.4e-4 -0.137544,0.0282 -0.187068,0.078 -0.102614,0.1032 -0.102614,0.2699 0,0.3731 l 0.562239,0.56224 c 0.103204,0.10261 0.269899,0.10261 0.373102,0 0.103646,-0.10338 0.103646,-0.27127 0,-0.37465 l -0.560689,-0.56064 c -0.04965,-0.0499 -0.117163,-0.078 -0.187584,-0.078 z m 10.330097,0.078 -0.560177,0.56069 c -0.10364,0.10338 -0.10364,0.27127 0,0.37465 0.10321,0.10261 0.269897,0.10261 0.373107,0 l 0.562237,-0.56224 c 0.10261,-0.1032 0.10261,-0.2699 0,-0.3731 -0.11065,-0.11065 -0.306117,-0.0691 -0.375167,0 z m -9.030953,4.3496 c -5e-6,-2.1863 1.764882,-3.95626 3.951182,-3.96113 2.186286,-0.005 3.957197,1.75728 3.966667,3.94356 v 0.0264 c -2.581855,-0.19812 -5.318262,-0.16428 -7.917849,-0.005 z m -3.179649,-3.05097 c -0.07313,0.12683 -0.02936,0.28894 0.09767,0.36173 l 1.375109,0.79478 c 0.126717,0.0728 0.288446,0.0291 0.361219,-0.0977 0.07278,-0.12672 0.02905,-0.28845 -0.09767,-0.36122 l -1.375111,-0.79324 c -0.173664,-0.0689 -0.30549,-9.2e-4 -0.361217,0.0956 z m 13.884383,-0.0408 -1.374584,0.79323 c -0.126157,0.0733 -0.169157,0.23491 -0.0961,0.36122 0.0728,0.12703 0.234896,0.1708 0.361736,0.0977 l 1.374584,-0.79323 c 0.12741,-0.0734 0.17057,-0.23652 0.0961,-0.36329 -0.0793,-0.13727 -0.277237,-0.14438 -0.361737,-0.0956 z m -2.158008,4.52325 c -1.013024,0.51561 -1.892151,0.71018 -3.101602,1.11156 -0.482497,0.16012 -0.857827,0.47736 -0.857827,0.85174 0,0.46863 0.454447,0.77872 0.879497,0.93162 0.462217,0.16339 0.929414,0.33775 1.335831,0.51573 0.30186,0.16138 0.17747,0.44688 0.078,0.6382 -0.18953,0.36319 -0.600697,0.7992 -0.974614,1.07435 -0.422617,0.311 -0.812007,0.65681 -1.175634,0.98237 -0.17168,0.15371 -0.317937,0.25964 -0.424257,0.31988 0.0142,-0.0438 0.0332,-0.0949 0.0589,-0.15193 0.469147,-1.0402 0.0631,-2.31248 -1.033011,-2.71249 -0.728869,-0.266 -1.460116,-0.49779 -2.152324,-0.74828 -0.384728,-0.13922 -0.542862,-0.33474 -0.542862,-0.48069 0,-0.14587 0.09622,-0.35642 0.523214,-0.52132 0.214947,-0.083 0.4324,-0.16439 0.652155,-0.24804 0.483246,-0.16792 0.83089,-0.46584 0.83089,-0.82737 0,-0.40866 -0.573037,-0.69774 -1.002006,-0.77357 -0.859904,-0.14776 -1.720014,-0.28875 -2.499591,-0.50023 -0.162491,-0.0344 -0.307591,-0.11693 -0.445955,-0.19172 0.182184,-0.0617 0.370943,-0.1028 0.527603,-0.11678 1.642975,-0.11803 3.354859,-0.18823 4.866147,-0.18399 1.511291,0.004 2.826845,0.0534 4.097239,0.16072 0.455257,0.0385 0.708734,0.25119 0.708734,0.39783 0,0.14665 -0.0226,0.30654 -0.348567,0.47241 z"
         sodipodi:nodetypes="ccccccccccccccccccccccccsccccccccscccccccscccccscccccssssccsssssccscccsccccccccccccccccccccccscccccccccccsccccssccsscscccccccczc" />
    </g>
  </g>
</svg>
